<?xml version="1.0" encoding="utf-8"?>
<!-- Generator: Adobe Illustrator 24.2.1, SVG Export Plug-In . SVG Version: 6.00 Build 0)  -->
<svg version="1.1" id="Layer_1" xmlns="http://www.w3.org/2000/svg" xmlns:xlink="http://www.w3.org/1999/xlink" x="0px" y="0px"
	 viewBox="0 0 512 512" style="enable-background:new 0 0 512 512;" xml:space="preserve">
<path d="M437,75C390.7,28.7,326.7,0,256,0S121.3,28.7,75,75C28.7,121.3,0,185.3,0,256s28.7,134.7,75,181c46.3,46.3,110.3,75,181,75
	c141.4,0,256-114.6,256-256C512,185.3,483.3,121.3,437,75z M400.7,400.7c-37,37-88.2,60-144.7,60s-107.7-22.9-144.7-60
	c-37-37-60-88.2-60-144.7c0-56.5,22.9-107.7,60-144.7c37-37,88.2-60,144.7-60s107.7,22.9,144.7,60c37,37,60,88.2,60,144.7
	C460.7,312.5,437.8,363.7,400.7,400.7z"/>
<path d="M490.4,512H21.6C9.7,512,0,502.3,0,490.4V21.6C0,9.7,9.7,0,21.6,0h468.8C502.3,0,512,9.7,512,21.6v468.8
	C512,502.3,502.3,512,490.4,512z"/>
</svg>
