<?xml version="1.0" encoding="utf-8"?>
<!-- Generator: Adobe Illustrator 24.2.1, SVG Export Plug-In . SVG Version: 6.00 Build 0)  -->
<svg version="1.1" id="Layer_1" xmlns="http://www.w3.org/2000/svg" xmlns:xlink="http://www.w3.org/1999/xlink" x="0px" y="0px"
	 viewBox="0 0 512 512" style="enable-background:new 0 0 512 512;" xml:space="preserve">
<g>
	<path d="M437,75C390.7,28.7,326.7,0,256,0S121.3,28.7,75,75C28.7,121.3,0,185.3,0,256s28.7,134.7,75,181c46.3,46.3,110.3,75,181,75
		c141.4,0,256-114.6,256-256C512,185.3,483.3,121.3,437,75z M256,51.3c47.5,0,91.2,16.2,126,43.3l-126,126l-126-126
		C164.8,67.5,208.5,51.3,256,51.3z M51.3,256c0-47.5,16.2-91.2,43.3-126l126,126l-126,126C67.5,347.2,51.3,303.5,51.3,256z
		 M256,460.7c-47.5,0-91.2-16.2-126-43.4l126-126l126,126C347.2,444.5,303.5,460.7,256,460.7z M417.3,382l-126-126l126-126
		c27.2,34.7,43.3,78.5,43.3,126S444.5,347.2,417.3,382z"/>
</g>
</svg>
