<?xml version="1.0" encoding="utf-8"?>
<!-- Generator: Adobe Illustrator 24.2.1, SVG Export Plug-In . SVG Version: 6.00 Build 0)  -->
<svg version="1.1" id="Layer_1" xmlns="http://www.w3.org/2000/svg" xmlns:xlink="http://www.w3.org/1999/xlink" x="0px" y="0px"
	 viewBox="0 0 512 512" style="enable-background:new 0 0 512 512;" xml:space="preserve">
<path d="M490.4,0H21.6C9.7,0,0,9.7,0,21.6v468.8C0,502.3,9.7,512,21.6,512h468.8c11.9,0,21.6-9.7,21.6-21.6V21.6
	C512,9.7,502.3,0,490.4,0z M460.7,439.1c0,11.9-9.7,21.6-21.6,21.6H72.9c-11.9,0-21.6-9.7-21.6-21.6V72.9c0-11.9,9.7-21.6,21.6-21.6
	h366.2c11.9,0,21.6,9.7,21.6,21.6V439.1z"/>
</svg>
